<svg width="248" height="112" viewBox="0 0 248 112" fill="none" xmlns="http://www.w3.org/2000/svg">
<g clip-path="url(#clip0_260_1113)">
<path d="M80.72 54.48C95.7642 54.48 107.96 42.2842 107.96 27.24C107.96 12.1958 95.7642 0 80.72 0C65.6757 0 53.48 12.1958 53.48 27.24C53.48 42.2842 65.6757 54.48 80.72 54.48Z" fill="#A56248"/>
<path d="M1.66006 110.8C1.60006 110.78 0.350064 110.42 0.0600639 109.26C0.0400639 109.18 -0.129936 108.47 0.260064 107.79C0.630064 107.14 3.18006 105.19 3.73006 104.38C5.41006 101.93 8.52006 100.69 10.4101 99.94C12.5001 99.11 12.8001 99.41 13.9801 98.6C15.5401 97.53 15.8801 96.41 17.1501 94.73C17.5701 94.18 17.8901 93.83 21.6901 90.56C25.6201 87.18 27.5901 85.49 28.4001 84.92C31.6001 82.67 32.1301 82.96 34.5101 80.91C36.5601 79.15 36.4501 78.69 38.3501 77.34C41.0701 75.4 41.8301 75.96 43.3601 74.27C44.7201 72.76 44.9301 71.43 46.3701 71.06C47.0401 70.89 48.1101 70.84 48.3401 70.33C48.5501 69.85 49.7101 69.45 50.5401 69.76C52.2401 70.39 52.1401 72.09 53.9101 73.9C54.8401 74.86 54.9501 74.47 57.1801 75.97C60.0601 77.91 61.9001 79.15 61.9601 80.81C62.0001 82.13 60.8901 82.61 60.9601 84.62C60.9901 85.44 61.1801 85.46 61.3601 86.52C61.5301 87.52 62.0501 90.53 60.5601 92.13C59.7501 93 59.0601 92.69 57.9701 93.95C57.4501 94.55 57.5601 94.68 56.9001 95.45C56.0601 96.45 51.2701 104.33 49.5101 105.58C49.0701 105.9 47.0401 106.46 42.9901 107.59C41.7101 107.95 41.0601 108.13 40.9201 108.16C37.4401 108.8 36.4201 107.33 32.9601 107.52C31.1601 107.62 29.5601 108.12 27.9801 108.62C26.2201 109.17 25.1601 109.7 23.4301 109.62C22.3901 109.58 22.5801 109.38 20.8901 109.15C19.0501 108.9 17.3101 108.69 15.7401 109.52C14.8501 109.99 15.0401 110.25 14.2001 110.79C12.4101 111.94 10.5301 111.37 6.71006 111.02C5.49006 110.91 3.76006 110.79 1.64006 110.78L1.66006 110.8Z" fill="black"/>
<path d="M58.3401 73.41C57.3601 72.83 56.1001 72.28 55.8301 71.09C55.6501 70.3 55.9901 69.61 56.1001 69.38C56.6501 68.23 57.8801 67.56 58.9501 67.44C59.3501 67.4 59.9901 67.4 63.1401 69.27C65.0301 70.39 65.9701 70.95 66.8701 71.78C67.8501 72.68 68.0701 73.16 69.3801 74.82C70.4101 76.13 71.5701 77.6 72.9601 78.93C73.4001 79.35 73.4601 79.38 78.9001 83.23C81.2601 84.91 81.7201 85.23 82.6701 85.67C84.6201 86.56 85.1701 86.31 85.9401 87.12C86.9601 88.18 87.0301 89.71 87.1601 92.14C87.2601 94.09 86.9901 94.13 87.2001 95.41C87.5101 97.31 88.1401 97.47 88.8001 99.6C88.9901 100.23 89.6001 102.35 89.2901 104.97C89.1001 106.63 88.9601 107.8 88.0701 108.47C87.1701 109.15 86.3901 108.63 83.4701 108.51C80.7201 108.4 79.3401 108.34 77.6501 108.81C76.4701 109.14 75.5001 109.61 74.3801 109.19C73.7301 108.94 73.5601 108.6 72.7801 108.35C71.8701 108.06 71.2501 108.27 70.2701 108.39C68.5101 108.61 67.0701 108.37 64.8701 108.01C63.4001 107.77 63.4301 107.65 62.5101 107.59C61.1601 107.51 59.9801 107.71 58.9301 107.89C57.2701 108.18 57.1201 108.38 56.2301 108.35C55.4101 108.32 54.1501 108.27 53.6001 107.4C53.1401 106.66 53.5101 105.62 54.0901 104.43C55.6201 101.33 57.5301 99.42 59.0001 97.77C61.9601 94.44 62.7401 93.98 63.0701 92.48C63.3801 91.06 62.9001 90.82 63.2801 88.76C63.7001 86.43 64.4601 85.95 64.6401 84.16C64.8201 82.36 64.2501 80.94 63.8701 80.01C63.3601 78.75 61.7301 75.42 58.3501 73.41H58.3401Z" fill="black"/>
<path d="M84.85 84.22C82.52 82.77 81.62 82.62 80.99 81.44C80.92 81.3 80.23 79.96 80.69 78.45C81.21 76.75 82.85 75.97 83.71 75.56C85.08 74.91 85.58 75.17 86.7 74.72C88.66 73.92 89.48 72.14 90.26 70.89C93.46 65.77 99.95 63.51 101.5 62.97C104.55 61.91 105.95 62.24 107.98 60.59C108.76 59.96 109.65 59.01 111.23 58.64C111.71 58.53 113.01 58.23 114.18 58.84C115.62 59.6 116.02 61.28 116.33 62.6C116.7 64.19 117.64 68.21 115.16 70.32C114.81 70.62 114.49 70.78 111.07 71.46C106.37 72.4 105.97 72.3 104.56 72.84C103.15 73.38 100.41 74.42 99.69 76.73C99.42 77.6 99.33 78.97 100.03 79.48C100.57 79.88 101.38 79.61 101.88 79.45C103.74 78.84 107.2 77.71 109.5 77.4C111.12 77.18 113.14 76.91 114.47 78.14C115.49 79.08 115.64 80.49 115.81 82.03C115.95 83.33 116.11 84.74 115.31 85.49C114.61 86.13 113.56 85.93 112.39 85.79C111.07 85.63 105.53 85.06 101.75 87.17C100.68 87.77 100.18 88.34 100.04 88.98C99.84 89.89 100.5 90.32 101.11 91.7C101.92 93.52 102 95.56 102.15 99.05C102.16 99.36 102.18 99.91 102.45 100.56C102.9 101.63 103.51 101.7 104.03 102.51C104.85 103.78 104.46 105.39 104.06 107.07C103.78 108.23 103.64 108.82 103.12 109.18C102.41 109.68 101.59 109.38 99.73 108.98C95.93 108.17 95.84 108.69 94.56 107.97C94.13 107.73 92.07 106.5 91.71 104.41C91.53 103.37 91.87 102.67 92.11 101.83C93.04 98.64 92.07 95.65 90.83 91.83C90.03 89.36 89.63 88.12 88.45 86.86C87.51 85.86 86.37 85.15 84.86 84.21L84.85 84.22Z" fill="black"/>
<path d="M108.16 109.78C107.51 109.42 106.68 108.81 106.39 107.84C106.22 107.28 106.3 106.89 106.42 106.07C106.42 106.07 106.63 104.37 106.52 102.05C106.49 101.47 106.32 100.53 105.97 98.69C105.38 95.56 105.21 95.25 105.14 94.01C105.03 92.24 104.98 90.96 105.83 90.06C106.54 89.31 107.59 89.12 107.98 89.06C109.16 88.85 109.53 89.27 110.72 89.13C111.71 89.01 111.79 88.69 113.15 88.19C114.24 87.79 115.29 87.68 117.38 87.46C119.95 87.19 120.39 87.37 120.64 87.49C121.98 88.17 122.37 89.71 122.44 90.02C122.47 90.15 122.91 92.16 121.75 93.38C121.25 93.91 120.87 93.85 119.32 94.35C117.22 95.04 115.32 95.69 114.54 97.19C114.4 97.47 114.52 97.33 114.16 98.96C113.65 101.24 113.4 102.38 112.88 103.33C112.26 104.45 111.83 104.61 111.63 105.58C111.53 106.1 111.59 106.37 111.42 107.35C111.27 108.22 111.2 108.65 111 108.94C110.36 109.9 108.68 109.82 108.16 109.77V109.78Z" fill="black"/>
<path d="M115.57 108.48C115.43 108.33 114.58 107.36 114.5 105.97C114.43 104.75 115.02 104.4 115.89 102.3C116.87 99.92 116.39 99.69 117.19 98.5C117.48 98.07 118.65 96.44 120.63 95.95C122.42 95.51 123 96.46 124.7 95.99C125.88 95.67 127.36 94.73 127.83 93.35C127.99 92.88 128.34 91.46 125.06 86.82C122.53 83.25 121.87 83.45 120.54 81.18C119.99 80.25 118.21 77.13 118.3 72.99C118.38 69.61 119.67 67.23 121.3 64.22C121.97 62.99 123.47 60.42 126.13 57.87C128.02 56.05 129.43 54.74 131.32 54.83C132.77 54.9 133.85 55.77 135.08 56.75C135.88 57.39 137.24 58.51 138.03 60.51C138.47 61.62 138.92 62.56 138.61 63.73C138.33 64.78 137.51 65.83 136.42 66.19C135.54 66.48 135.16 66.09 134.36 66.23C132.84 66.5 131.5 68.39 131.23 69.99C130.61 73.6 135.04 77.92 138.66 79.79C139.71 80.33 140.56 80.6 141.61 81.58C142.45 82.36 143.65 83.81 144.43 86.95C144.64 87.8 145.23 90.4 144.39 97.51C143.56 104.54 142.49 106.16 141.84 106.99C141.38 107.58 140.17 109.09 138.08 110.03C136.34 110.82 135.5 110.52 130.34 110.66C126.83 110.75 126.21 110.92 123.5 110.84C123.5 110.84 120.45 110.75 117.42 109.63C116.94 109.45 116.22 109.16 115.59 108.47L115.57 108.48Z" fill="black"/>
<path d="M118.18 60.94C117.99 60.93 117.61 60.6 117.4 59.61C117.28 59.06 116.97 57.03 118.91 53.98C119.75 52.66 119.73 53.17 121.52 50.82C123.09 48.76 123.87 47.73 124.4 46.84C125.17 45.54 125.38 44.91 126.09 44.69C127.26 44.33 128.56 45.48 128.7 45.6C129.61 46.42 129.26 46.91 130.48 48.62C131.07 49.44 131.37 49.63 131.49 50.22C131.71 51.31 131.01 52.27 130.9 52.42C130.42 53.07 129.84 53.3 128.11 53.93C124.36 55.29 119.51 61.04 118.18 60.93V60.94Z" fill="black"/>
<path d="M135.7 71.74C135.28 70.7 135.01 70.04 135.22 69.39C135.4 68.85 136.04 68.47 137.31 67.74C138.37 67.13 138.9 66.83 139.51 66.71C139.69 66.68 141.72 66.32 142.63 67.41C143.05 67.91 142.94 68.36 143 69.83C143.08 71.67 143.27 71.35 143.59 75.29C143.73 77.05 143.73 77.6 143.33 78.11C142.87 78.7 141.99 79.13 141.2 78.95C140.23 78.73 140.35 77.79 138.71 75.83C137.82 74.77 137.29 74.46 136.47 73.19C136.26 72.86 135.96 72.37 135.7 71.72V71.74Z" fill="black"/>
<path d="M146.36 88.68C147.13 82.59 149.02 79.83 149.51 79.15C150.98 77.1 152.47 76.14 152.99 75.84C153.63 75.46 155.26 74.5 157.55 74.35C159.25 74.24 160.49 74.62 162.52 75.26C164.91 76.01 164.91 76.38 167.33 77.17C170.31 78.14 170.61 77.67 172.14 78.5C172.8 78.86 175.28 80.2 175.95 82.97C176.08 83.5 176.74 86.23 174.87 88.02C173.3 89.52 170.96 89.19 170.31 89.1C168.06 88.78 167.78 87.58 165.5 87.03C165.03 86.92 162.21 86.23 160.03 87.69C157.28 89.53 156.52 94.09 158.21 96.72C159.6 98.89 162.58 99.62 163.93 99.95C166.2 100.51 167.05 100.04 168.16 100.94C169.55 102.08 170.07 104.34 169.49 106.24C168.84 108.37 166.99 109.34 166.42 109.64C165 110.38 163.75 110.4 161.03 110.3C155.47 110.09 152.67 109.97 151.5 109.22C149.5 107.94 148.77 106.04 147.69 103.25C145.35 97.22 145.97 91.83 146.36 88.67V88.68Z" fill="black"/>
<path d="M131.21 43.14C131.02 43.52 130.92 44.23 132.88 47.16C134.53 49.62 135.05 49.78 135.95 51.4C136.56 52.5 136.37 52.5 137.51 55.53C138.7 58.68 139.32 60.28 140.19 61.22C141.87 63.05 142.75 62.23 144.1 63.96C145.18 65.34 145.55 67.05 146.17 69.93C146.62 72.03 146.54 72.63 147.17 73.11C148.19 73.89 149.83 73.38 151.97 72.72C154.7 71.88 154.84 71.24 156.49 71.1C156.9 71.07 157.38 71.06 161.01 72.05C162.8 72.54 164.59 73 166.37 73.5C168.86 74.2 169.48 74.41 170.28 74.06C171.32 73.6 172.12 72.45 172.29 71.32C172.47 70.15 171.84 69.81 172.12 68.7C172.4 67.6 173.13 67.45 173.52 66.52C174.03 65.27 173.64 63.64 172.79 62.72C171.81 61.65 170.24 61.63 169.55 61.6C164.52 61.4 159.12 59.13 156.54 57.47C153.59 55.56 154.89 54.79 150.4 50.77C147.87 48.5 145.87 47.33 142.42 45.3C138.51 43 135.83 41.91 133.1 42.23C132.2 42.34 131.49 42.58 131.2 43.12L131.21 43.14Z" fill="black"/>
<path d="M181.08 64.98C179.23 64.42 178.81 63.94 177.47 63.84C176.68 63.78 175.67 63.7 175.22 64.28C174.72 64.93 175.47 65.67 175.22 67.35C175.09 68.26 174.84 68.2 174.49 69.54C174.09 71.05 173.86 71.93 174.3 72.71C174.86 73.71 176.23 74.03 177.12 74.01C178.09 73.99 178.43 73.56 179.56 73.19C181.1 72.68 181.6 73.1 183.3 72.9C185.91 72.61 188.33 71.22 189.48 69.35C190.02 68.46 189.98 67.95 189.92 67.7C189.66 66.55 188.1 66.03 187.57 65.86C186.18 65.4 185.76 65.84 183.51 65.51C182.34 65.34 181.41 65.07 181.07 64.97L181.08 64.98Z" fill="black"/>
<path d="M181.55 90.39C180.09 90.43 179.08 90.45 178.39 89.82C177.68 89.18 177.64 88.16 177.59 87.08C177.53 85.82 177.85 85.79 177.83 84.3C177.82 83.71 177.79 82.75 177.41 81.61C177.05 80.56 176.8 80.61 176.7 80.01C176.48 78.68 177.47 77.2 178.59 76.42C179.07 76.08 179.46 75.96 182.18 75.48C185.77 74.84 185.72 74.95 186.24 74.73C187.76 74.06 187.66 73.34 190.06 71.24C192.03 69.52 193.01 68.65 194.26 68.74C195.89 68.85 197.28 70.42 197.89 71.52C198.34 72.34 198.2 72.61 198.79 73.6C199.6 74.96 200.28 75.13 200.77 75.96C201.41 77.04 200.93 77.91 200.53 80.49C199.98 84.07 200.53 84.71 199.78 88.27C199.26 90.69 198.83 91.21 198.41 91.52C197.54 92.17 196.58 91.97 193.65 91.43C186.61 90.13 184.96 89.91 183.41 90.2C183.28 90.22 182.56 90.36 181.57 90.39H181.55Z" fill="black"/>
<path d="M161.9 96.37C161.32 95.59 161.26 94.73 161.22 94.12C161.19 93.64 161.1 92.27 161.95 90.9C162.21 90.48 162.65 89.76 163.51 89.34C164.32 88.94 165.19 88.96 166.59 89.29C168.99 89.86 169.72 90.6 171.81 91.39C172.44 91.63 174.32 92.29 176.64 92.46C179.24 92.65 179.94 92.04 182.6 91.97C184.64 91.91 184.49 92.26 188.85 92.85C194.17 93.56 197.93 93.73 197.93 93.73C200.5 93.84 201 93.74 201.88 94.22C204.12 95.43 204.78 98.18 205.3 100.32C205.96 103.09 206.66 106 204.96 107.98C203.76 109.38 201.64 109.97 200.03 109.88C198.6 109.8 198.14 109.21 196.32 109.25C195.07 109.27 195.05 109.56 193.29 109.79C191.54 110.02 190.98 109.81 188.75 109.89C186.99 109.95 185.9 110.12 184.94 110.23C179.3 110.87 176.48 111.13 175.03 110.08C174.66 109.81 173.62 107.54 171.56 103C170.3 100.23 170.01 99.57 169.12 99.05C167.84 98.3 166.96 98.8 164.04 97.73C163.02 97.35 162.37 97.02 161.89 96.36L161.9 96.37Z" fill="black"/>
<path d="M205.06 74.66C203.68 75.09 202.82 76.79 202.63 78.08C202.54 78.71 202.63 79.22 202.83 80.21C203.44 83.29 204.29 83.63 204.42 85.66C204.51 87.04 204.12 86.97 204.17 88.93C204.2 89.85 204.23 91.08 204.72 92.4C205.4 94.25 206.85 98.28 207.84 101.08C208.36 102.55 208.98 103.35 208.78 104.75C208.65 105.63 208.35 105.71 208.33 106.39C208.29 107.95 209.88 109.68 211.6 110.21C213.2 110.7 213.71 109.8 216.91 109.27C220.43 108.69 223.06 109.26 223.55 109.37C226 109.93 225.93 110.62 228.26 111.35C231.69 112.43 232.42 111.12 238.08 111.4C242.2 111.61 243.77 112.4 245.47 111.15C246.34 110.51 247.28 109.3 247.06 108.13C246.81 106.81 244.71 107.1 242.25 105.65C239.72 104.17 240.41 103.07 237.59 100.69C234.36 97.96 232.78 98.82 230.9 96.28C229.53 94.43 230.13 93.65 228.57 92.11C227.05 90.61 226.11 90.98 224.21 89.23C222.59 87.74 222.99 87.2 221.58 86.21C219.86 84.99 219.04 85.62 217.17 84.42C216.34 83.89 216.3 83.63 214.29 81.4C212.53 79.44 211.65 78.46 210.52 77.48C208.33 75.59 206.67 74.16 205.07 74.65L205.06 74.66Z" fill="black"/>
</g>
<defs>
<clipPath id="clip0_260_1113">
<rect width="247.09" height="111.84" fill="white"/>
</clipPath>
</defs>
</svg>
